# xmcd CD database file
#
# Track frame offsets:
#	150
#	9400
#	20857
#	32152
#	43228
#	63172
#	71800
#	81623
#	99924
#	107603
#	119806
#	135491
#	149914
#	162023
#	175663
#
# Disc length: 2617 seconds
#
# Revision: 0
# Processed by: cddbd v1.5.1PL0 Copyright (c) Steve Scherf et al.
# Submitted via: CDex 1.50
#
DISCID=d80a370f
DTITLE=Tomas Linka - Prima linka do vzpominek
DYEAR=1999
DGENRE=Country
TTITLE0=Hej Joe
TTITLE1=Jesse James
TTITLE2=Sest bilejch koni
TTITLE3=Casey Jones
TTITLE4=Podzim hlasi prichod
TTITLE5=Hardy
TTITLE6=Ja v posledni dobe
TTITLE7=Zatoka
TTITLE8=Kamarad
TTITLE9=Cizinec
TTITLE10=Cervena reka
TTITLE11=Vlak ma zelenou
TTITLE12=Rok 1849
TTITLE13=Na vanoce rano
TTITLE14=Smes
EXTD=YEAR: 1999
EXTT0=
EXTT1=
EXTT2=
EXTT3=
EXTT4=
EXTT5=
EXTT6=
EXTT7=
EXTT8=
EXTT9=
EXTT10=
EXTT11=
EXTT12=
EXTT13=
EXTT14=
PLAYORDER=
